HIERARCHY
ROOT Hips
{
  OFFSET 0 0 0
  CHANNELS 6 Xposition Yposition Zposition Zrotation Yrotation Xrotation
  JOINT LeftThigh
  {
    OFFSET 8.409438 0 -5.917753
    CHANNELS 3 Zrotation Yrotation Xrotation
    JOINT LeftLeg
    {
      OFFSET 0 0 -42.358652
      CHANNELS 3 Zrotation Yrotation Xrotation
      JOINT LeftFoot
      {
        OFFSET 0 0 -39.357303
        CHANNELS 3 Zrotation Yrotation Xrotation
      }
    }
  }
  JOINT RightThigh
  {
    OFFSET -8.409438 0 -5.917753
    CHANNELS 3 Zrotation Yrotation Xrotation
    JOINT RightLeg
    {
      OFFSET 0 0 -42.358652
      CHANNELS 3 Zrotation Yrotation Xrotation
      JOINT RightFoot
      {
        OFFSET 0 0 -39.357303
        CHANNELS 3 Zrotation Yrotation Xrotation
      }
    }
  }
  JOINT SpineLow
  {
    OFFSET 0 0 4.719101
    CHANNELS 3 Zrotation Yrotation Xrotation
    JOINT SpineMid
    {
      OFFSET 0 0 12.899191
      CHANNELS 3 Zrotation Yrotation Xrotation
      JOINT Chest
      {
        OFFSET 0 0 12.899191
        CHANNELS 3 Zrotation Yrotation Xrotation
        JOINT LeftShoulder
        {
          OFFSET 7.550562 1.41573 9.438202
          CHANNELS 3 Zrotation Yrotation Xrotation
          JOINT LeftArm
          {
            OFFSET 9.155056 0 4.247191
            CHANNELS 3 Zrotation Yrotation Xrotation
            JOINT LeftForearm
            {
              OFFSET 0 0 25.771955
              CHANNELS 3 Zrotation Yrotation Xrotation
              JOINT LeftHand
              {
                OFFSET 0 0 25.197169
                CHANNELS 3 Zrotation Yrotation Xrotation
              }
            }
          }
        }
        JOINT RightShoulder
        {
          OFFSET -7.550562 1.41573 9.438202
          CHANNELS 3 Zrotation Yrotation Xrotation
          JOINT RightArm
          {
            OFFSET -9.155056 0 4.247191
            CHANNELS 3 Zrotation Yrotation Xrotation
            JOINT RightForearm
            {
              OFFSET 0 0 -25.771955
              CHANNELS 3 Zrotation Yrotation Xrotation
              JOINT RightHand
              {
                OFFSET 0 0 -25.197169
                CHANNELS 3 Zrotation Yrotation Xrotation
              }
            }
          }
        }
        JOINT Neck
        {
          OFFSET 0 0 15.101124
          CHANNELS 3 Zrotation Yrotation Xrotation
          JOINT Head
          {
            OFFSET 0 0 11.325843
            CHANNELS 3 Zrotation Yrotation Xrotation
            End Site
            {
              OFFSET 0 0 14.157303
            }
          }
        }
      }
    }
  }
}
MOTION
Frames: 10
Frame Time: 0.0
0.0  89.887642  0.0  15.907129  -59.435792  -113.550612  40.58787  -42.760729  -25.783596  14.269819  32.970134  64.677417  -1.553111  0.015443  0.916868  -9.579644  16.54295  -30.647363  10.761721  9.820257  66.037243  7.620184  1.4395  -1.027898  0.13007  2.53936  1.681515  0.534195  6.928106  4.625588  0.534195  6.928106  4.625588  -0.868398  16.739779  8.111722  -93.023658  45.510848  -79.726849  -38.261957  16.345663  73.316313  73.769939  -3.536965  0.497653  5.572239  -4.070237  11.936732  127.668255  35.805984  42.278185  -8.652524  0.734792  -73.18674  80.655475  10.077374  -14.044494  22.805033  -1.965793  6.505678  17.125309  -1.233602  4.960419  
0.0  89.887642  0.0  15.962929  -59.250839  -113.533449  40.740429  -42.688962  -25.863081  14.257263  33.002243  64.405499  -1.405982  0.105041  1.03089  -9.606604  16.713688  -30.522842  10.780611  9.784219  65.716833  7.54454  1.403594  -0.942037  0.153207  2.510104  1.648036  0.592026  6.846923  4.53566  0.592026  6.846922  4.53566  -0.707859  17.028388  8.547405  -93.612246  45.442088  -79.953453  -38.164219  16.443786  73.450855  73.819359  -3.302309  0.287133  5.791816  -3.946538  12.335734  126.700742  35.692306  41.899666  -9.236613  1.594932  -73.456795  80.026792  9.903745  -13.444262  22.533402  -1.882199  6.619823  16.921263  -1.169435  5.042034  
0.0  89.887642  0.0  15.555168  -58.81779  -113.073856  40.823479  -42.610472  -26.176553  14.332026  32.921534  64.374685  -1.341916  0.12092  1.075835  -10.295258  16.704701  -30.512722  10.8621  9.762378  65.305746  7.468767  1.410342  -0.84059  0.146456  2.43886  1.580346  0.561659  6.653457  4.348077  0.561659  6.653457  4.348078  -0.547048  17.368247  9.213367  -94.285465  45.35429  -80.268642  -38.11288  16.720923  73.66801  73.936612  -2.930339  -0.047972  6.143301  -3.728403  12.95593  125.526604  35.670207  41.583619  -10.160399  2.466354  -74.066259  79.15987  9.44602  -12.574917  22.219609  -1.796187  6.928128  16.686241  -1.096949  5.269315  
0.0  89.887642  0.0  15.339379  -58.513645  -112.923188  40.953436  -42.555279  -26.415139  14.333968  32.873392  64.369689  -1.166616  0.17758  1.138056  -10.82753  16.758084  -30.309831  11.346412  9.614475  64.841109  7.225397  1.210224  -0.738421  0.160548  2.337736  1.483736  0.58409  6.377273  4.082883  0.58409  6.377273  4.082882  -0.152179  17.889123  10.203218  -95.082819  45.273402  -80.639288  -38.099626  17.200443  74.048305  74.100448  -2.372215  -0.50833  6.520803  -3.460721  13.908772  124.252667  35.717151  41.324376  -11.277418  3.531564  -75.030909  78.02805  8.573246  -11.349531  21.838814  -1.689269  7.424088  16.401313  -1.003153  5.636634  
0.0  89.887642  0.0  14.632837  -57.744868  -112.26738  40.755902  -42.47196  -26.826851  14.275352  32.884369  64.414321  -1.000095  0.219645  1.154461  -11.989019  16.804236  -30.177246  11.403396  9.572999  64.258709  7.186997  1.20703  -0.600512  0.093457  2.182683  1.336376  0.377172  5.958854  3.670477  0.377172  5.958854  3.670477  0.364874  18.607169  11.515477  -95.849035  45.188845  -80.962979  -38.125753  17.922586  74.617386  74.358234  -1.758493  -0.980636  6.947978  -3.02317  15.188418  122.748634  35.961227  40.931951  -12.480409  4.691126  -76.280325  76.728308  7.451554  -9.6552  21.473448  -1.521546  8.178487  16.127931  -0.855011  6.196101  
0.0  89.887642  0.0  13.747459  -56.763035  -111.49512  40.327617  -42.427931  -27.316046  13.902056  33.147752  64.186785  -0.632753  0.42272  1.253246  -13.88753  16.780526  -30.131842  11.909293  9.418511  63.58117  7.147095  1.20688  -0.442502  -7.63E-4  1.982257  1.160392  0.093384  5.416901  3.178319  0.093384  5.416901  3.178319  0.905352  19.526886  13.07681  -96.390138  45.074469  -81.059319  -38.117704  18.857252  75.346145  74.701391  -1.204562  -1.429928  7.231087  -2.423385  16.459159  120.96283  36.178545  40.098703  -13.603539  5.741656  -77.664482  75.505711  6.27177  -7.467431  20.997876  -1.286  9.094432  15.771041  -0.652873  6.874402  
0.0  89.887642  0.0  12.693238  -55.493632  -110.478544  39.730853  -42.304253  -28.019725  13.785352  33.32428  64.300303  -0.483724  0.513395  1.144888  -15.427275  16.977922  -29.921275  11.627191  9.599484  62.82314  7.1707  1.23221  -0.269332  -0.109134  1.745721  0.936914  -0.230904  4.775154  2.557167  -0.230904  4.775154  2.557167  1.306358  20.615481  14.887242  -96.568753  44.912505  -80.761082  -37.960931  19.917499  76.248372  75.224855  -0.657687  -1.839914  7.545419  -1.621264  18.087049  118.729595  36.886869  39.0186  -14.615037  6.436796  -79.432325  74.517443  4.869668  -4.852585  20.372035  -0.995521  10.215242  15.300385  -0.406525  7.704628  
0.0  89.887642  0.0  11.415175  -53.951186  -109.235067  38.990979  -42.18754  -28.903888  13.625188  33.556905  64.433776  -0.455111  0.586196  0.955581  -17.154049  17.205855  -29.691221  11.201011  9.868403  62.049104  7.304101  1.221794  -0.146916  -0.242828  1.504651  0.742438  -0.618173  4.119783  2.01664  -0.618173  4.119783  2.01664  1.506871  21.605074  16.40635  -96.220995  44.805637  -80.041273  -37.573814  21.155105  77.379684  75.971067  -0.098942  -2.219848  7.511624  -0.798185  19.420416  116.490349  37.865007  37.679148  -15.391641  6.887728  -81.613076  73.767709  3.137648  -1.767925  19.562421  -0.6482  11.183621  14.689403  -0.128095  8.418656  
0.0  89.887642  0.0  10.127615  -52.270112  -107.926145  38.332296  -41.980929  -30.051687  13.42809  33.766704  64.672295  -0.476094  0.685048  0.728662  -18.700401  17.551155  -29.451896  10.481238  10.080155  61.349564  7.413482  1.154206  -0.037196  -0.345055  1.341744  0.668252  -0.906847  3.676661  1.809115  -0.906848  3.67666  1.809115  1.051446  21.944387  16.840226  -95.370277  44.846944  -78.932697  -36.820854  22.486297  78.792865  76.995452  0.574979  -2.654343  7.702343  -0.131181  19.684747  113.156615  39.305017  35.414679  -15.738694  6.74637  -84.177824  73.808838  0.955014  1.885106  18.561187  -0.356243  11.603369  13.933619  0.085617  8.722907  
0.0  89.887642  0.0  8.725822  -50.352508  -106.439122  37.641387  -41.730106  -31.470369  13.274311  33.917371  65.026608  -0.515574  0.819838  0.62029  -20.659362  17.746044  -29.290417  10.015434  10.106653  60.622804  7.553551  1.294295  0.002318  -0.470808  1.24705  0.70612  -1.251376  3.421962  1.9073  -1.251376  3.421962  1.9073  0.34239  21.626428  16.344133  -94.125225  44.935313  -77.168657  -35.66576  23.57914  80.481823  78.295688  1.537389  -3.132592  7.949213  0.219584  18.819281  109.002066  41.095377  32.299159  -15.483322  6.294352  -87.060124  74.312647  -1.300261  5.696533  17.437661  -0.152073  11.459518  13.086593  0.213431  8.607323  
